# Blender v2.78 (sub 0) OBJ File: 'untitledgg.blend'
# www.blender.org
mtllib cylinder2.mtl
o Cylinder001
v 0 -0.999999 -5.02339e-007
v 0.939694 -0.999999 -0.347294
v 1 -0.999999 -5.02339e-007
v 0.5 -0.999999 -0.879384
v 0.766046 -0.999999 -0.652703
v -0.173648 -0.999999 -0.999997
v 0.173647 -0.999999 -0.999997
v -0.766044 -0.999999 -0.652703
v -0.5 -0.999999 -0.879384
v -1 -0.999999 -5.02339e-007
v -0.939694 -0.999999 -0.347294
v -0.766044 -1 0.652705
v -0.939694 -1 0.347297
v -0.173648 -1 1
v -0.5 -1 0.879386
v 0.5 -1 0.879386
v 0.173647 -1 1
v 0.939694 -1 0.347297
v 0.766043 -1 0.652705
v 1 -0.600001 -5.02339e-007
v 0.939694 -0.600001 -0.347294
v 0.766046 -0.600001 -0.652702
v 0.5 -0.600001 -0.879384
v 0.173647 -0.600001 -0.999997
v -0.173648 -0.600001 -0.999997
v -0.766044 -0.600001 -0.652702
v -0.5 -0.600001 -0.879384
v -0.939694 -0.600001 -0.347294
v -0.939694 -0.600001 0.347297
v -1 -0.600001 -5.02339e-007
v -0.766044 -0.600001 0.652705
v -0.5 -0.600001 0.879386
v -0.173648 -0.600001 1
v 0.173647 -0.600001 1
v 0.5 -0.600001 0.879386
v 0.766043 -0.600001 0.652705
v 0.939694 -0.600001 0.347297
v 1 -0.199999 -5.02339e-007
v 0.939694 -0.199999 -0.347294
v 0.766046 -0.199999 -0.652702
v 0.5 -0.199999 -0.879384
v 0.173647 -0.199999 -1
v -0.5 -0.199999 -0.879384
v -0.173648 -0.199999 -0.999997
v -0.766044 -0.199999 -0.652702
v -1 -0.199999 -5.02339e-007
v -0.939694 -0.199999 -0.347294
v -0.939694 -0.199999 0.347297
v -0.766044 -0.199999 0.652705
v -0.5 -0.199999 0.879386
v -0.173648 -0.199999 1
v 0.173647 -0.199999 1
v 0.766043 -0.199999 0.652705
v 0.5 -0.199999 0.879386
v 0.939694 -0.199999 0.347297
v 1 0.199999 -5.02339e-007
v 0.939694 0.2 -0.347294
v 0.5 0.2 -0.879384
v 0.766046 0.2 -0.652702
v 0.173647 0.2 -0.999997
v -0.173648 0.2 -0.999997
v -0.5 0.2 -0.879384
v -0.766044 0.2 -0.652702
v -1 0.199999 -5.02339e-007
v -0.939694 0.2 -0.347294
v -0.939694 0.199999 0.347297
v -0.766044 0.199999 0.652705
v -0.5 0.199999 0.879386
v -0.173648 0.199999 1
v 0.173647 0.199999 1
v 0.5 0.199999 0.879386
v 0.766043 0.199999 0.652705
v 0.939694 0.199999 0.347297
v 1 0.600001 -5.02339e-007
v 0.766046 0.600001 -0.652702
v 0.939694 0.600001 -0.347294
v 0.5 0.600001 -0.879383
v 0.173647 0.600002 -0.999997
v -0.5 0.600001 -0.879383
v -0.173648 0.600002 -0.999997
v -0.766044 0.600001 -0.652702
v -0.939694 0.600001 -0.347294
v -1 0.600001 -5.02339e-007
v -0.939694 0.600001 0.347297
v -0.766044 0.600001 0.652705
v -0.5 0.600001 0.879387
v -0.173648 0.600001 1
v 0.173647 0.600001 1
v 0.5 0.600001 0.879387
v 0.766043 0.600001 0.652705
v 0.939694 0.600001 0.347297
v 0.939694 1 -0.347294
v 1 1 5.02339e-007
v 0.766046 1 -0.652702
v 0.5 1 -0.879383
v 0.173647 1 -0.999997
v -0.5 1 -0.879383
v -0.173648 1 -0.999997
v -0.766044 1 -0.652702
v -0.939694 1 -0.347294
v -0.939694 1 0.347297
v -1 1 5.02339e-007
v -0.766044 1 0.652706
v -0.5 0.999999 0.879387
v -0.173648 0.999999 1
v 0.173647 0.999999 1
v 0.766043 1 0.652706
v 0.5 0.999999 0.879387
v 0.939694 1 0.347297
v 0 1 5.02339e-007
vt 0.5000 0.0000
vt 0.8056 0.0000
vt 0.7500 0.0000
vt 0.9167 0.0000
vt 0.8611 0.0000
vt 0.0278 0.0000
vt -0.0278 0.0000
vt 0.1389 0.0000
vt 0.0833 0.0000
vt 0.2500 0.0000
vt 0.1944 0.0000
vt 0.3611 0.0000
vt 0.3056 0.0000
vt 0.4722 0.0000
vt 0.4167 0.0000
vt 0.5833 0.0000
vt 0.5278 0.0000
vt 0.6944 0.0000
vt 0.6389 0.0000
vt 0.9722 0.0000
vt 0.7500 0.2000
vt 0.8056 0.2000
vt 0.8611 0.2000
vt 0.9167 0.2000
vt -0.0278 0.2000
vt 0.0278 0.2000
vt 0.1389 0.2000
vt 0.0833 0.2000
vt 0.1944 0.2000
vt 0.3056 0.2000
vt 0.2500 0.2000
vt 0.3611 0.2000
vt 0.4167 0.2000
vt 0.4722 0.2000
vt 0.5278 0.2000
vt 0.5833 0.2000
vt 0.6389 0.2000
vt 0.6944 0.2000
vt 0.7500 0.4000
vt 0.8056 0.4000
vt 0.8611 0.4000
vt 0.9722 0.2000
vt 0.9167 0.4000
vt -0.0278 0.4000
vt 0.0833 0.4000
vt 0.0278 0.4000
vt 0.1389 0.4000
vt 0.2500 0.4000
vt 0.1944 0.4000
vt 0.3056 0.4000
vt 0.3611 0.4000
vt 0.4167 0.4000
vt 0.4722 0.4000
vt 0.5278 0.4000
vt 0.6389 0.4000
vt 0.5833 0.4000
vt 0.6944 0.4000
vt 0.7500 0.6000
vt 0.8056 0.6000
vt 0.9167 0.6000
vt 0.8611 0.6000
vt 0.9722 0.6000
vt -0.0278 0.6000
vt 0.0278 0.6000
vt 0.0833 0.6000
vt 0.1389 0.6000
vt 0.2500 0.6000
vt 0.1944 0.6000
vt 0.3056 0.6000
vt 0.3611 0.6000
vt 0.4167 0.6000
vt 0.4722 0.6000
vt 0.5278 0.6000
vt 0.5833 0.6000
vt 0.6389 0.6000
vt 0.6944 0.6000
vt 0.7500 0.8000
vt 0.8611 0.8000
vt 0.8056 0.8000
vt 0.9167 0.8000
vt -0.0278 0.8000
vt 0.0833 0.8000
vt 0.0278 0.8000
vt 0.1389 0.8000
vt 0.1944 0.8000
vt 0.2500 0.8000
vt 0.3056 0.8000
vt 0.3611 0.8000
vt 0.4167 0.8000
vt 0.4722 0.8000
vt 0.5278 0.8000
vt 0.5833 0.8000
vt 0.6389 0.8000
vt 0.6944 0.8000
vt 0.8056 1.0000
vt 0.7500 1.0000
vt 0.8611 1.0000
vt 0.9722 0.8000
vt 0.9167 1.0000
vt -0.0278 1.0000
vt 0.0833 1.0000
vt 0.0278 1.0000
vt 0.1389 1.0000
vt 0.1944 1.0000
vt 0.3056 1.0000
vt 0.2500 1.0000
vt 0.3611 1.0000
vt 0.4167 1.0000
vt 0.4722 1.0000
vt 0.5278 1.0000
vt 0.6389 1.0000
vt 0.5833 1.0000
vt 0.6944 1.0000
vt 0.9722 0.4000
vt 0.9722 1.0000
vt 0.5000 1.0000
vt 0.9708 1.0000
vn 0.0000 -1.0000 -0.0000
vn 0.9397 0.0000 -0.3420
vn 1.0000 0.0000 -0.0000
vn 0.7660 0.0000 -0.6428
vn 0.5000 0.0000 -0.8660
vn 0.1736 0.0000 -0.9848
vn -0.1736 0.0000 -0.9848
vn -0.5000 0.0000 -0.8660
vn -0.7660 0.0000 -0.6428
vn -0.9397 0.0000 -0.3420
vn -1.0000 0.0000 -0.0000
vn -0.9397 -0.0000 0.3420
vn -0.7660 -0.0000 0.6428
vn -0.5000 -0.0000 0.8660
vn -0.1736 -0.0000 0.9848
vn 0.1736 -0.0000 0.9848
vn 0.5000 -0.0000 0.8660
vn 0.7660 -0.0000 0.6428
vn 0.9397 -0.0000 0.3420
vn 0.0000 1.0000 0.0000
usemtl wire_184155229
s 1
f 1/1/1 2/2/1 3/3/1
f 1/1/1 4/4/1 5/5/1
f 1/1/1 6/6/1 7/7/1
f 1/1/1 8/8/1 9/9/1
f 1/1/1 10/10/1 11/11/1
f 1/1/1 12/12/1 13/13/1
f 1/1/1 14/14/1 15/15/1
f 1/1/1 16/16/1 17/17/1
f 1/1/1 18/18/1 19/19/1
f 1/1/1 5/5/1 2/2/1
f 1/1/1 7/20/1 4/4/1
f 1/1/1 9/9/1 6/6/1
f 1/1/1 11/11/1 8/8/1
f 1/1/1 13/13/1 10/10/1
f 1/1/1 15/15/1 12/12/1
f 1/1/1 17/17/1 14/14/1
f 1/1/1 19/19/1 16/16/1
f 1/1/1 3/3/1 18/18/1
f 2/2/2 20/21/3 3/3/3
f 5/5/4 21/22/2 2/2/2
f 4/4/5 22/23/4 5/5/4
f 7/20/6 23/24/5 4/4/5
f 6/6/7 24/25/6 7/7/6
f 9/9/8 25/26/7 6/6/7
f 9/9/8 26/27/9 27/28/8
f 11/11/10 26/27/9 8/8/9
f 10/10/11 28/29/10 11/11/10
f 10/10/11 29/30/12 30/31/11
f 12/12/13 29/30/12 13/13/12
f 15/15/14 31/32/13 12/12/13
f 14/14/15 32/33/14 15/15/14
f 17/17/16 33/34/15 14/14/15
f 16/16/17 34/35/16 17/17/16
f 19/19/18 35/36/17 16/16/17
f 18/18/19 36/37/18 19/19/18
f 3/3/3 37/38/19 18/18/19
f 21/22/2 38/39/3 20/21/3
f 22/23/4 39/40/2 21/22/2
f 23/24/5 40/41/4 22/23/4
f 24/42/6 41/43/5 23/24/5
f 25/26/7 42/44/6 24/25/6
f 25/26/7 43/45/8 44/46/7
f 26/27/9 43/45/8 27/28/8
f 28/29/10 45/47/9 26/27/9
f 28/29/10 46/48/11 47/49/10
f 29/30/12 46/48/11 30/31/11
f 31/32/13 48/50/12 29/30/12
f 32/33/14 49/51/13 31/32/13
f 33/34/15 50/52/14 32/33/14
f 34/35/16 51/53/15 33/34/15
f 35/36/17 52/54/16 34/35/16
f 35/36/17 53/55/18 54/56/17
f 37/38/19 53/55/18 36/37/18
f 37/38/19 38/39/3 55/57/19
f 39/40/2 56/58/3 38/39/3
f 40/41/4 57/59/2 39/40/2
f 40/41/4 58/60/5 59/61/4
f 41/43/5 60/62/6 58/60/5
f 44/46/7 60/63/6 42/44/6
f 43/45/8 61/64/7 44/46/7
f 45/47/9 62/65/8 43/45/8
f 47/49/10 63/66/9 45/47/9
f 47/49/10 64/67/11 65/68/10
f 48/50/12 64/67/11 46/48/11
f 49/51/13 66/69/12 48/50/12
f 50/52/14 67/70/13 49/51/13
f 51/53/15 68/71/14 50/52/14
f 52/54/16 69/72/15 51/53/15
f 54/56/17 70/73/16 52/54/16
f 53/55/18 71/74/17 54/56/17
f 55/57/19 72/75/18 53/55/18
f 38/39/3 73/76/19 55/57/19
f 57/59/2 74/77/3 56/58/3
f 57/59/2 75/78/4 76/79/2
f 58/60/5 75/78/4 59/61/4
f 60/62/6 77/80/5 58/60/5
f 61/64/7 78/81/6 60/63/6
f 61/64/7 79/82/8 80/83/7
f 63/66/9 79/82/8 62/65/8
f 65/68/10 81/84/9 63/66/9
f 64/67/11 82/85/10 65/68/10
f 66/69/12 83/86/11 64/67/11
f 67/70/13 84/87/12 66/69/12
f 68/71/14 85/88/13 67/70/13
f 69/72/15 86/89/14 68/71/14
f 70/73/16 87/90/15 69/72/15
f 71/74/17 88/91/16 70/73/16
f 72/75/18 89/92/17 71/74/17
f 73/76/19 90/93/18 72/75/18
f 56/58/3 91/94/19 73/76/19
f 74/77/3 92/95/2 93/96/3
f 75/78/4 92/95/2 76/79/2
f 77/80/5 94/97/4 75/78/4
f 78/98/6 95/99/5 77/80/5
f 80/83/7 96/100/6 78/81/6
f 80/83/7 97/101/8 98/102/7
f 79/82/8 99/103/9 97/101/8
f 82/85/10 99/103/9 81/84/9
f 83/86/11 100/104/10 82/85/10
f 83/86/11 101/105/12 102/106/11
f 85/88/13 101/105/12 84/87/12
f 86/89/14 103/107/13 85/88/13
f 87/90/15 104/108/14 86/89/14
f 88/91/16 105/109/15 87/90/15
f 89/92/17 106/110/16 88/91/16
f 89/92/17 107/111/18 108/112/17
f 90/93/18 109/113/19 107/111/18
f 74/77/3 109/113/19 91/94/19
f 2/2/2 21/22/2 20/21/3
f 5/5/4 22/23/4 21/22/2
f 4/4/5 23/24/5 22/23/4
f 7/20/6 24/42/6 23/24/5
f 6/6/7 25/26/7 24/25/6
f 9/9/8 27/28/8 25/26/7
f 9/9/8 8/8/9 26/27/9
f 11/11/10 28/29/10 26/27/9
f 10/10/11 30/31/11 28/29/10
f 10/10/11 13/13/12 29/30/12
f 12/12/13 31/32/13 29/30/12
f 15/15/14 32/33/14 31/32/13
f 14/14/15 33/34/15 32/33/14
f 17/17/16 34/35/16 33/34/15
f 16/16/17 35/36/17 34/35/16
f 19/19/18 36/37/18 35/36/17
f 18/18/19 37/38/19 36/37/18
f 3/3/3 20/21/3 37/38/19
f 21/22/2 39/40/2 38/39/3
f 22/23/4 40/41/4 39/40/2
f 23/24/5 41/43/5 40/41/4
f 24/42/6 42/114/6 41/43/5
f 25/26/7 44/46/7 42/44/6
f 25/26/7 27/28/8 43/45/8
f 26/27/9 45/47/9 43/45/8
f 28/29/10 47/49/10 45/47/9
f 28/29/10 30/31/11 46/48/11
f 29/30/12 48/50/12 46/48/11
f 31/32/13 49/51/13 48/50/12
f 32/33/14 50/52/14 49/51/13
f 33/34/15 51/53/15 50/52/14
f 34/35/16 52/54/16 51/53/15
f 35/36/17 54/56/17 52/54/16
f 35/36/17 36/37/18 53/55/18
f 37/38/19 55/57/19 53/55/18
f 37/38/19 20/21/3 38/39/3
f 39/40/2 57/59/2 56/58/3
f 40/41/4 59/61/4 57/59/2
f 40/41/4 41/43/5 58/60/5
f 41/43/5 42/114/6 60/62/6
f 44/46/7 61/64/7 60/63/6
f 43/45/8 62/65/8 61/64/7
f 45/47/9 63/66/9 62/65/8
f 47/49/10 65/68/10 63/66/9
f 47/49/10 46/48/11 64/67/11
f 48/50/12 66/69/12 64/67/11
f 49/51/13 67/70/13 66/69/12
f 50/52/14 68/71/14 67/70/13
f 51/53/15 69/72/15 68/71/14
f 52/54/16 70/73/16 69/72/15
f 54/56/17 71/74/17 70/73/16
f 53/55/18 72/75/18 71/74/17
f 55/57/19 73/76/19 72/75/18
f 38/39/3 56/58/3 73/76/19
f 57/59/2 76/79/2 74/77/3
f 57/59/2 59/61/4 75/78/4
f 58/60/5 77/80/5 75/78/4
f 60/62/6 78/98/6 77/80/5
f 61/64/7 80/83/7 78/81/6
f 61/64/7 62/65/8 79/82/8
f 63/66/9 81/84/9 79/82/8
f 65/68/10 82/85/10 81/84/9
f 64/67/11 83/86/11 82/85/10
f 66/69/12 84/87/12 83/86/11
f 67/70/13 85/88/13 84/87/12
f 68/71/14 86/89/14 85/88/13
f 69/72/15 87/90/15 86/89/14
f 70/73/16 88/91/16 87/90/15
f 71/74/17 89/92/17 88/91/16
f 72/75/18 90/93/18 89/92/17
f 73/76/19 91/94/19 90/93/18
f 56/58/3 74/77/3 91/94/19
f 74/77/3 76/79/2 92/95/2
f 75/78/4 94/97/4 92/95/2
f 77/80/5 95/99/5 94/97/4
f 78/98/6 96/115/6 95/99/5
f 80/83/7 98/102/7 96/100/6
f 80/83/7 79/82/8 97/101/8
f 79/82/8 81/84/9 99/103/9
f 82/85/10 100/104/10 99/103/9
f 83/86/11 102/106/11 100/104/10
f 83/86/11 84/87/12 101/105/12
f 85/88/13 103/107/13 101/105/12
f 86/89/14 104/108/14 103/107/13
f 87/90/15 105/109/15 104/108/14
f 88/91/16 106/110/16 105/109/15
f 89/92/17 108/112/17 106/110/16
f 89/92/17 90/93/18 107/111/18
f 90/93/18 91/94/19 109/113/19
f 74/77/3 93/96/3 109/113/19
f 110/116/20 93/96/20 92/95/20
f 110/116/20 94/97/20 95/99/20
f 110/116/20 96/115/20 98/117/20
f 110/116/20 97/101/20 99/103/20
f 110/116/20 100/104/20 102/106/20
f 110/116/20 101/105/20 103/107/20
f 110/116/20 104/108/20 105/109/20
f 110/116/20 106/110/20 108/112/20
f 110/116/20 107/111/20 109/113/20
f 110/116/20 109/113/20 93/96/20
f 110/116/20 92/95/20 94/97/20
f 110/116/20 95/99/20 96/115/20
f 110/116/20 98/102/20 97/101/20
f 110/116/20 99/103/20 100/104/20
f 110/116/20 102/106/20 101/105/20
f 110/116/20 103/107/20 104/108/20
f 110/116/20 105/109/20 106/110/20
f 110/116/20 108/112/20 107/111/20

